<?xml version="1.0" encoding="iso-8859-1"?>
<!-- Generator: Adobe Illustrator 18.0.0, SVG Export Plug-In . SVG Version: 6.00 Build 0)  -->
<!DOCTYPE svg PUBLIC "-//W3C//DTD SVG 1.1//EN" "http://www.w3.org/Graphics/SVG/1.1/DTD/svg11.dtd">
<svg version="1.1" id="Capa_1" xmlns="http://www.w3.org/2000/svg" xmlns:xlink="http://www.w3.org/1999/xlink" x="0px" y="0px"
	 viewBox="0 0 300.492 300.492" style="enable-background:new 0 0 300.492 300.492;" xml:space="preserve">
<g>
	<path d="M166.223,0h-34.021c-0.031,0-0.061,0-0.092,0.002C98.115,0.563,66.244,14.231,42.363,38.488
		C18.455,62.773,5.289,94.912,5.289,128.986c0,34.072,13.168,66.209,37.074,90.492c23.879,24.252,55.752,37.922,89.746,38.486
		c0.029,0,0.061,0,0.092,0h15.764l40.898,40.914c1.053,1.055,2.461,1.613,3.895,1.613c0.707,0,1.422-0.137,2.104-0.418
		c2.057-0.852,3.396-2.859,3.396-5.084v-41.117c26.563-6.809,50.582-22.152,68.02-43.543c18.654-22.881,28.926-51.77,28.926-81.344
		c0-34.453-13.416-66.844-37.779-91.207C233.063,13.418,200.674,0,166.223,0z M191.578,244.15c-2.525,0.555-4.326,2.791-4.326,5.375
		v32.176l-33.117-33.129c-1.031-1.033-2.432-1.613-3.891-1.613h-17.996c-63.939-1.088-115.953-54-115.953-117.973
		c0-63.982,52.014-116.898,115.951-117.98h33.977c65.051,0,117.975,52.926,117.975,117.98
		C284.197,183.951,245.246,232.385,191.578,244.15z"/>
	<path d="M184.156,97.395c0,3.039,2.465,5.504,5.504,5.504c3.039,0,5.502-2.465,5.502-5.504c0-18.887-17.232-34.514-39.416-36.758
		V50.104c0-3.039-2.463-5.502-5.502-5.502c-3.039,0-5.504,2.463-5.504,5.502v10.533c-22.182,2.244-39.416,17.871-39.416,36.758
		c0,18.883,17.234,34.508,39.416,36.752v51.994c-16.092-2.025-28.41-12.768-28.41-25.684c0-3.039-2.465-5.504-5.504-5.504
		c-3.039,0-5.502,2.465-5.502,5.504c0,18.887,17.234,34.514,39.416,36.76v10.545c0,3.041,2.465,5.504,5.504,5.504
		c3.039,0,5.502-2.463,5.502-5.504v-10.547c22.184-2.244,39.416-17.871,39.416-36.758c0-18.887-17.232-34.516-39.416-36.76V71.711
		C171.838,73.736,184.156,84.48,184.156,97.395z M116.33,97.395c0-12.914,12.318-23.658,28.41-25.684v51.361
		C128.648,121.047,116.33,110.307,116.33,97.395z M184.156,160.457c0,12.916-12.318,23.658-28.41,25.684v-51.367
		C171.838,136.799,184.156,147.541,184.156,160.457z"/>
</g>
<g>
</g>
<g>
</g>
<g>
</g>
<g>
</g>
<g>
</g>
<g>
</g>
<g>
</g>
<g>
</g>
<g>
</g>
<g>
</g>
<g>
</g>
<g>
</g>
<g>
</g>
<g>
</g>
<g>
</g>
</svg>
